<?xml version="1.0" encoding="UTF-8"?>
<svg width="276px" height="130px" viewBox="0 0 276 130" version="1.1" xmlns="http://www.w3.org/2000/svg" xmlns:xlink="http://www.w3.org/1999/xlink">
    <title>bookmarked-preview</title>
    <defs>
        <rect id="path-1" x="0" y="0" width="196" height="50" rx="25"></rect>
        <filter x="-32.4%" y="-113.0%" width="164.8%" height="354.0%" filterUnits="objectBoundingBox" id="filter-2">
            <feOffset dx="0" dy="7" in="SourceAlpha" result="shadowOffsetOuter1"></feOffset>
            <feGaussianBlur stdDeviation="20" in="shadowOffsetOuter1" result="shadowBlurOuter1"></feGaussianBlur>
            <feColorMatrix values="0 0 0 0 0.118101482   0 0 0 0 0.118751665   0 0 0 0 0.127745697  0 0 0 0.16 0" type="matrix" in="shadowBlurOuter1"></feColorMatrix>
        </filter>
    </defs>
    <g id="Page-1" stroke="none" stroke-width="1" fill="none" fill-rule="evenodd">
        <g id="Artboard-Copy" transform="translate(-951.000000, -259.000000)">
            <g id="Group-2" transform="translate(730.000000, 141.000000)">
                <g id="bookmarked-preview" transform="translate(261.000000, 151.000000)">
                    <g id="Background">
                        <use fill="black" fill-opacity="1" filter="url(#filter-2)" xlink:href="#path-1"></use>
                        <use fill="#FFFFFF" fill-rule="evenodd" xlink:href="#path-1"></use>
                    </g>
                    <path d="M21.6326905,84.2257732 L23.7748809,76.593299 L23.8523095,76.593299 L25.9945,84.2257732 L27.0914048,84.2257732 L29.6271905,74.5561856 L28.4141428,74.5561856 L26.5623095,82.4164948 L26.4848809,82.4164948 L24.4007619,74.5561856 L23.2264286,74.5561856 L21.1423095,82.4164948 L21.0648809,82.4164948 L19.2130476,74.5561856 L18,74.5561856 L20.5357857,84.2257732 L21.6326905,84.2257732 Z M31.5167573,75.6082474 C31.9426145,75.6082474 32.291043,75.2463918 32.291043,74.8041237 C32.291043,74.3618557 31.9426145,74 31.5167573,74 C31.0909002,74 30.7424716,74.3618557 30.7424716,74.8041237 C30.7424716,75.2463918 31.0909002,75.6082474 31.5167573,75.6082474 Z M32.0716621,84.2257732 L32.0716621,77.0020619 L30.9618526,77.0020619 L30.9618526,84.2257732 L32.0716621,84.2257732 Z M36.3421575,84.2793814 C36.5615385,84.2793814 36.774467,84.2525773 36.993848,84.2123711 L36.993848,83.2407216 C36.7873718,83.2608247 36.6776813,83.2675258 36.4776575,83.2675258 C35.7549908,83.2675258 35.4452766,82.9056701 35.4452766,82.0546392 L35.4452766,77.9670103 L36.993848,77.9670103 L36.993848,77.0020619 L35.4452766,77.0020619 L35.4452766,75.1324742 L34.335467,75.1324742 L34.335467,77.0020619 L33.2127527,77.0020619 L33.2127527,77.9670103 L34.335467,77.9670103 L34.335467,82.3494845 C34.335467,83.7298969 34.9097289,84.2793814 36.3421575,84.2793814 Z M39.5286529,84.2257732 L39.5286529,79.9505155 C39.5286529,78.7309278 40.2126053,77.9134021 41.4579148,77.9134021 C42.5096529,77.9134021 43.0645577,78.55 43.0645577,79.8298969 L43.0645577,84.2257732 L44.1743672,84.2257732 L44.1743672,79.5484536 C44.1743672,77.8530928 43.2452244,76.8747423 41.7740815,76.8747423 C40.7094386,76.8747423 39.9803196,77.3438144 39.631891,78.1412371 L39.5286529,78.1412371 L39.5286529,74.1340206 L38.4188434,74.1340206 L38.4188434,84.2257732 L39.5286529,84.2257732 Z M48.7416722,84.3530928 C50.7225531,84.3530928 51.9485055,82.9324742 51.9485055,80.6139175 C51.9485055,78.2886598 50.7225531,76.8747423 48.7416722,76.8747423 C46.7607912,76.8747423 45.5348388,78.2886598 45.5348388,80.6139175 C45.5348388,82.9324742 46.7607912,84.3530928 48.7416722,84.3530928 Z M48.7416722,83.314433 C47.4253864,83.314433 46.6833626,82.3226804 46.6833626,80.6139175 C46.6833626,78.8984536 47.4253864,77.9134021 48.7416722,77.9134021 C50.0579579,77.9134021 50.7999817,78.8984536 50.7999817,80.6139175 C50.7999817,82.3226804 50.0579579,83.314433 48.7416722,83.314433 Z M55.6834533,84.3530928 C56.7480961,84.3530928 57.49012,83.8974227 57.8385485,83.093299 L57.9417866,83.093299 L57.9417866,84.2257732 L58.9999771,84.2257732 L58.9999771,77.0020619 L57.8901676,77.0020619 L57.8901676,81.2773196 C57.8901676,82.5438144 57.21912,83.3010309 55.9931676,83.3010309 C54.8833581,83.3010309 54.4187866,82.6979381 54.4187866,81.3979381 L54.4187866,77.0020619 L53.3089771,77.0020619 L53.3089771,81.6793814 C53.3089771,83.3881443 54.1219771,84.3530928 55.6834533,84.3530928 Z M63.244663,84.2793814 C63.4640439,84.2793814 63.6769725,84.2525773 63.8963535,84.2123711 L63.8963535,83.2407216 C63.6898773,83.2608247 63.5801868,83.2675258 63.380163,83.2675258 C62.6574963,83.2675258 62.347782,82.9056701 62.347782,82.0546392 L62.347782,77.9670103 L63.8963535,77.9670103 L63.8963535,77.0020619 L62.347782,77.0020619 L62.347782,75.1324742 L61.2379725,75.1324742 L61.2379725,77.0020619 L60.1152582,77.0020619 L60.1152582,77.9670103 L61.2379725,77.9670103 L61.2379725,82.3494845 C61.2379725,83.7298969 61.8122344,84.2793814 63.244663,84.2793814 Z M69.7789634,84.2257732 L69.7789634,79.7494845 C69.7789634,78.7309278 70.4822729,77.9134021 71.3920586,77.9134021 C72.2695824,77.9134021 72.8438443,78.4628866 72.8438443,79.3206186 L72.8438443,84.2257732 L73.9536538,84.2257732 L73.9536538,79.5819588 C73.9536538,78.6639175 74.5988919,77.9134021 75.5667491,77.9134021 C76.547511,77.9134021 77.0314395,78.4360825 77.0314395,79.5015464 L77.0314395,84.2257732 L78.1412491,84.2257732 L78.1412491,79.2335052 C78.1412491,77.7190722 77.3476062,76.8747423 75.9280824,76.8747423 C74.9666776,76.8747423 74.1730348,77.3773196 73.7987967,78.1412371 L73.6955586,78.1412371 C73.3729396,77.3907216 72.7147967,76.8747423 71.7727491,76.8747423 C70.8436062,76.8747423 70.1467491,77.3371134 69.8305824,78.1412371 L69.7273443,78.1412371 L69.7273443,77.0020619 L68.6691538,77.0020619 L68.6691538,84.2257732 L69.7789634,84.2257732 Z M82.6375778,84.3530928 C84.1603397,84.3530928 85.2443397,83.5891753 85.5669588,82.3561856 L84.4571493,82.3561856 C84.1667921,82.9927835 83.5602683,83.3345361 82.6633874,83.3345361 C81.4826016,83.3345361 80.7147683,82.4298969 80.6566969,81.0025773 L80.6566969,80.9489691 L85.6572921,80.9489691 L85.6572921,80.506701 C85.6572921,78.2618557 84.5152207,76.8747423 82.6375778,76.8747423 C80.7276731,76.8747423 79.5017207,78.3489691 79.5017207,80.6206186 C79.5017207,82.9056701 80.7083159,84.3530928 82.6375778,84.3530928 Z M84.4894112,80.0175258 L80.6566969,80.0175258 C80.7405778,78.7376289 81.5148635,77.893299 82.6246731,77.893299 C83.7280302,77.893299 84.4636016,78.7376289 84.4894112,80.0175258 Z M89.4696685,84.3530928 C91.0505018,84.3530928 92.2570971,83.4618557 92.2570971,82.1685567 C92.2570971,81.1298969 91.6247637,80.5402062 90.3149304,80.2118557 L89.2438352,79.9438144 C88.4243828,79.7360825 88.0372399,79.4278351 88.0372399,78.9319588 C88.0372399,78.2886598 88.682478,77.8530928 89.5083828,77.8530928 C90.3471923,77.8530928 90.8891923,78.2350515 91.0375971,78.8113402 L92.1345018,78.8113402 C91.9860971,77.6252577 90.9730732,76.8747423 89.5148352,76.8747423 C88.0372399,76.8747423 86.920978,77.7793814 86.920978,78.978866 C86.920978,80.0242268 87.5145971,80.6072165 88.817978,80.935567 L90.0116685,81.2371134 C90.7536923,81.4247423 91.1150256,81.7597938 91.1150256,82.2556701 C91.1150256,82.9190722 90.443978,83.3814433 89.5083828,83.3814433 C88.6179542,83.3814433 88.0630494,82.9927835 87.8759304,82.3829897 L86.733859,82.3829897 C86.8564542,83.5824742 87.9210971,84.3530928 89.4696685,84.3530928 Z M95.9404258,84.3530928 C97.5212591,84.3530928 98.7278544,83.4618557 98.7278544,82.1685567 C98.7278544,81.1298969 98.095521,80.5402062 96.7856877,80.2118557 L95.7145925,79.9438144 C94.8951401,79.7360825 94.5079972,79.4278351 94.5079972,78.9319588 C94.5079972,78.2886598 95.1532353,77.8530928 95.9791401,77.8530928 C96.8179496,77.8530928 97.3599496,78.2350515 97.5083544,78.8113402 L98.6052591,78.8113402 C98.4568544,77.6252577 97.4438306,76.8747423 95.9855925,76.8747423 C94.5079972,76.8747423 93.3917353,77.7793814 93.3917353,78.978866 C93.3917353,80.0242268 93.9853544,80.6072165 95.2887353,80.935567 L96.4824258,81.2371134 C97.2244496,81.4247423 97.585783,81.7597938 97.585783,82.2556701 C97.585783,82.9190722 96.9147353,83.3814433 95.9791401,83.3814433 C95.0887115,83.3814433 94.5338068,82.9927835 94.3466877,82.3829897 L93.2046163,82.3829897 C93.3272115,83.5824742 94.3918544,84.3530928 95.9404258,84.3530928 Z M102.088564,84.3530928 C103.017707,84.3530928 103.779088,83.9309278 104.230755,83.1603093 L104.333993,83.1603093 L104.333993,84.2257732 L105.392183,84.2257732 L105.392183,79.2804124 C105.392183,77.7793814 104.443683,76.8747423 102.746707,76.8747423 C101.262659,76.8747423 100.165755,77.6386598 100.01735,78.7979381 L101.140064,78.7979381 C101.294921,78.2283505 101.875636,77.9 102.707993,77.9 C103.746826,77.9 104.282374,78.3891753 104.282374,79.2804124 L104.282374,79.9371134 L102.275683,80.064433 C100.656136,80.1649485 99.7398974,80.9087629 99.7398974,82.2020619 C99.7398974,83.5221649 100.740016,84.3530928 102.088564,84.3530928 Z M102.29504,83.3412371 C101.488493,83.3412371 100.888421,82.9123711 100.888421,82.1752577 C100.888421,81.4515464 101.352993,81.0695876 102.411183,80.9958763 L104.282374,80.8685567 L104.282374,81.5319588 C104.282374,82.5639175 103.437112,83.3412371 102.29504,83.3412371 Z M109.99175,87 C111.88875,87 113.088893,85.9680412 113.088893,84.3530928 L113.088893,77.0020619 L112.030702,77.0020619 L112.030702,78.1479381 L111.927464,78.1479381 C111.527417,77.3706186 110.66925,76.8747423 109.69494,76.8747423 C107.907631,76.8747423 106.778464,78.342268 106.778464,80.506701 C106.778464,82.671134 107.894726,84.1185567 109.69494,84.1185567 C110.649893,84.1185567 111.437083,83.6695876 111.875845,82.8721649 L111.979083,82.8721649 L111.979083,84.2927835 C111.979083,85.3582474 111.23706,85.9948454 109.99175,85.9948454 C108.991631,85.9948454 108.372202,85.6128866 108.249607,85.0231959 L107.075274,85.0231959 C107.243036,86.2159794 108.314131,87 109.99175,87 Z M109.940131,83.1 C108.649655,83.1 107.926988,82.0814433 107.926988,80.506701 C107.926988,78.9319588 108.649655,77.9134021 109.940131,77.9134021 C111.224155,77.9134021 112.004893,78.9319588 112.004893,80.506701 C112.004893,82.0814433 111.230607,83.1 109.940131,83.1 Z M117.649745,84.3530928 C119.172507,84.3530928 120.256507,83.5891753 120.579126,82.3561856 L119.469317,82.3561856 C119.17896,82.9927835 118.572436,83.3345361 117.675555,83.3345361 C116.494769,83.3345361 115.726936,82.4298969 115.668864,81.0025773 L115.668864,80.9489691 L120.66946,80.9489691 L120.66946,80.506701 C120.66946,78.2618557 119.527388,76.8747423 117.649745,76.8747423 C115.739841,76.8747423 114.513888,78.3489691 114.513888,80.6206186 C114.513888,82.9056701 115.720484,84.3530928 117.649745,84.3530928 Z M119.501579,80.0175258 L115.668864,80.0175258 C115.752745,78.7376289 116.527031,77.893299 117.636841,77.893299 C118.740198,77.893299 119.475769,78.7376289 119.501579,80.0175258 Z M122.797765,86.6850515 L123.810788,82.8721649 L122.578384,82.8721649 L121.965407,86.6850515 L122.797765,86.6850515 Z M131.971089,84.3530928 C133.95197,84.3530928 135.177922,82.9324742 135.177922,80.6139175 C135.177922,78.2886598 133.95197,76.8747423 131.971089,76.8747423 C129.990208,76.8747423 128.764255,78.2886598 128.764255,80.6139175 C128.764255,82.9324742 129.990208,84.3530928 131.971089,84.3530928 Z M131.971089,83.314433 C130.654803,83.314433 129.912779,82.3226804 129.912779,80.6139175 C129.912779,78.8984536 130.654803,77.9134021 131.971089,77.9134021 C133.287375,77.9134021 134.029398,78.8984536 134.029398,80.6139175 C134.029398,82.3226804 133.287375,83.314433 131.971089,83.314433 Z M137.712727,84.2257732 L137.712727,79.9505155 C137.712727,78.6840206 138.428941,77.9134021 139.538751,77.9134021 C140.64856,77.9134021 141.177656,78.5298969 141.177656,79.8298969 L141.177656,84.2257732 L142.287465,84.2257732 L142.287465,79.5484536 C142.287465,77.8329897 141.416394,76.8747423 139.854918,76.8747423 C138.790275,76.8747423 138.112775,77.3438144 137.764346,78.1412371 L137.661108,78.1412371 L137.661108,77.0020619 L136.602918,77.0020619 L136.602918,84.2257732 L137.712727,84.2257732 Z M145.170699,84.2257732 L145.170699,74.1340206 L144.060889,74.1340206 L144.060889,84.2257732 L145.170699,84.2257732 Z M147.602266,86.8391753 C148.83467,86.8391753 149.389575,86.343299 149.983194,84.6680412 L152.699647,77.0020619 L151.518861,77.0020619 L149.615408,82.9458763 L149.51217,82.9458763 L147.602266,77.0020619 L146.402123,77.0020619 L148.976623,84.2324742 L148.847575,84.6613402 C148.557218,85.5324742 148.208789,85.8474227 147.570004,85.8474227 C147.415147,85.8474227 147.240932,85.8407216 147.105432,85.8139175 L147.105432,86.7989691 C147.260289,86.8257732 147.453861,86.8391753 147.602266,86.8391753 Z M159.750137,84.2793814 C159.969518,84.2793814 160.182447,84.2525773 160.401828,84.2123711 L160.401828,83.2407216 C160.195352,83.2608247 160.085661,83.2675258 159.885637,83.2675258 C159.162971,83.2675258 158.853256,82.9056701 158.853256,82.0546392 L158.853256,77.9670103 L160.401828,77.9670103 L160.401828,77.0020619 L158.853256,77.0020619 L158.853256,75.1324742 L157.743447,75.1324742 L157.743447,77.0020619 L156.620733,77.0020619 L156.620733,77.9670103 L157.743447,77.9670103 L157.743447,82.3494845 C157.743447,83.7298969 158.317709,84.2793814 159.750137,84.2793814 Z M162.343014,75.6082474 C162.768871,75.6082474 163.117299,75.2463918 163.117299,74.8041237 C163.117299,74.3618557 162.768871,74 162.343014,74 C161.917157,74 161.568728,74.3618557 161.568728,74.8041237 C161.568728,75.2463918 161.917157,75.6082474 162.343014,75.6082474 Z M162.897918,84.2257732 L162.897918,77.0020619 L161.788109,77.0020619 L161.788109,84.2257732 L162.897918,84.2257732 Z M167.168414,84.2793814 C167.387795,84.2793814 167.600723,84.2525773 167.820104,84.2123711 L167.820104,83.2407216 C167.613628,83.2608247 167.503938,83.2675258 167.303914,83.2675258 C166.581247,83.2675258 166.271533,82.9056701 166.271533,82.0546392 L166.271533,77.9670103 L167.820104,77.9670103 L167.820104,77.0020619 L166.271533,77.0020619 L166.271533,75.1324742 L165.161723,75.1324742 L165.161723,77.0020619 L164.039009,77.0020619 L164.039009,77.9670103 L165.161723,77.9670103 L165.161723,82.3494845 C165.161723,83.7298969 165.735985,84.2793814 167.168414,84.2793814 Z M170.354909,84.2257732 L170.354909,74.1340206 L169.2451,74.1340206 L169.2451,84.2257732 L170.354909,84.2257732 Z M174.980286,84.3530928 C176.503048,84.3530928 177.587048,83.5891753 177.909667,82.3561856 L176.799857,82.3561856 C176.5095,82.9927835 175.902976,83.3345361 175.006095,83.3345361 C173.82531,83.3345361 173.057476,82.4298969 172.999405,81.0025773 L172.999405,80.9489691 L178,80.9489691 L178,80.506701 C178,78.2618557 176.857929,76.8747423 174.980286,76.8747423 C173.070381,76.8747423 171.844429,78.3489691 171.844429,80.6206186 C171.844429,82.9056701 173.051024,84.3530928 174.980286,84.3530928 Z M176.832119,80.0175258 L172.999405,80.0175258 C173.083286,78.7376289 173.857571,77.893299 174.967381,77.893299 C176.070738,77.893299 176.80631,78.7376289 176.832119,80.0175258 Z" id="Withoutmessage,onlytitle" fill="#000000" fill-rule="nonzero" opacity="0.300000012"></path>
                    <g id="Titles" transform="translate(59.500000, 17.000000)" fill="#000000" fill-rule="nonzero" opacity="0.600000024">
                        <path d="M5.1002832,12 C7.05536133,12 8.2487207,11.0097656 8.2487207,9.39746094 C8.2487207,8.20410156 7.39813477,7.31542969 6.16668945,7.20117188 L6.16668945,7.08691406 C7.08709961,6.94091797 7.79803711,6.09033203 7.79803711,5.12548828 C7.79803711,3.71630859 6.75067383,2.84033203 5.01141602,2.84033203 L1.1837793,2.84033203 L1.1837793,12 L5.1002832,12 Z M4.40204102,6.69970703 L2.82147461,6.69970703 L2.82147461,4.11621094 L4.61151367,4.11621094 C5.60174805,4.11621094 6.17938477,4.59228516 6.17938477,5.41113281 C6.17938477,6.24902344 5.56366211,6.69970703 4.40204102,6.69970703 Z M4.72577148,10.7241211 L2.82147461,10.7241211 L2.82147461,7.86132812 L4.66229492,7.86132812 C5.9127832,7.86132812 6.57293945,8.35009766 6.57293945,9.28320312 C6.57293945,10.2226562 5.93182617,10.7241211 4.72577148,10.7241211 Z M12.5451191,12.1396484 C14.6208027,12.1396484 15.8839863,10.78125 15.8839863,8.52783203 C15.8839863,6.28710938 14.6144551,4.92871094 12.5451191,4.92871094 C10.4821309,4.92871094 9.20625195,6.29345703 9.20625195,8.52783203 C9.20625195,10.78125 10.4630879,12.1396484 12.5451191,12.1396484 Z M12.5451191,10.8510742 C11.4469746,10.8510742 10.8185566,10.0004883 10.8185566,8.53417969 C10.8185566,7.06787109 11.4469746,6.21728516 12.5451191,6.21728516 C13.636916,6.21728516 14.265334,7.06787109 14.265334,8.53417969 C14.265334,10.0004883 13.6432637,10.8510742 12.5451191,10.8510742 Z M20.1549941,12.1396484 C22.2306777,12.1396484 23.4938613,10.78125 23.4938613,8.52783203 C23.4938613,6.28710938 22.2243301,4.92871094 20.1549941,4.92871094 C18.0920059,4.92871094 16.816127,6.29345703 16.816127,8.52783203 C16.816127,10.78125 18.0729629,12.1396484 20.1549941,12.1396484 Z M20.1549941,10.8510742 C19.0568496,10.8510742 18.4284316,10.0004883 18.4284316,8.53417969 C18.4284316,7.06787109 19.0568496,6.21728516 20.1549941,6.21728516 C21.246791,6.21728516 21.875209,7.06787109 21.875209,8.53417969 C21.875209,10.0004883 21.2531387,10.8510742 20.1549941,10.8510742 Z M26.4064707,12 L26.4064707,9.5625 L26.9650645,9.00390625 L29.1930918,12 L31.0973887,12 L28.1393809,8.0390625 L30.906959,5.06201172 L29.078834,5.06201172 L26.5143809,7.90576172 L26.4064707,7.90576172 L26.4064707,2.37695312 L24.832252,2.37695312 L24.832252,12 L26.4064707,12 Z M33.5720098,12 L33.5720098,7.77880859 C33.5720098,6.91552734 34.1496465,6.26171875 34.9304082,6.26171875 C35.7048223,6.26171875 36.1872441,6.73144531 36.1872441,7.49951172 L36.1872441,12 L37.7170293,12 L37.7170293,7.66455078 C37.7170293,6.87109375 38.2565801,6.26171875 39.0754277,6.26171875 C39.919666,6.26171875 40.344959,6.71240234 40.344959,7.61376953 L40.344959,12 L41.9128301,12 L41.9128301,7.2265625 C41.9128301,5.78564453 41.0749395,4.92871094 39.6848027,4.92871094 C38.719959,4.92871094 37.9201543,5.42382812 37.5773809,6.17919922 L37.4694707,6.17919922 C37.1774785,5.41113281 36.5109746,4.92871094 35.5524785,4.92871094 C34.6320684,4.92871094 33.9211309,5.3984375 33.622791,6.17919922 L33.5148809,6.17919922 L33.5148809,5.06201172 L31.997791,5.06201172 L31.997791,12 L33.5720098,12 Z M45.3776855,12.1142578 C46.2854004,12.1142578 47.0471191,11.7207031 47.4343262,11.0478516 L47.5422363,11.0478516 L47.5422363,12 L49.0593262,12 L49.0593262,7.25830078 C49.0593262,5.79199219 48.0563965,4.92871094 46.2727051,4.92871094 C44.6223145,4.92871094 43.4733887,5.703125 43.3464355,6.91552734 L44.8317871,6.91552734 C44.9777832,6.43945312 45.4729004,6.17919922 46.1965332,6.17919922 C47.0471191,6.17919922 47.5041504,6.56640625 47.5041504,7.25830078 L47.5041504,7.85498047 L45.7141113,7.96289062 C44.0256348,8.05810547 43.079834,8.78808594 43.079834,10.0322266 C43.079834,11.3017578 44.0383301,12.1142578 45.3776855,12.1142578 Z M45.8410645,10.9018555 C45.1428223,10.9018555 44.6413574,10.5527344 44.6413574,9.95605469 C44.6413574,9.37841797 45.0539551,9.0546875 45.9362793,8.99755859 L47.5041504,8.88964844 L47.5041504,9.45458984 C47.5041504,10.2797852 46.7932129,10.9018555 45.8410645,10.9018555 Z M52.2131465,12 L52.2131465,7.96923828 C52.2131465,6.99169922 52.924084,6.35693359 53.9460566,6.35693359 C54.2126582,6.35693359 54.6316035,6.40136719 54.752209,6.44580078 L54.752209,5.01123047 C54.6062129,4.97314453 54.326916,4.94775391 54.0984004,4.94775391 C53.2033809,4.94775391 52.4543574,5.45556641 52.2639277,6.14111328 L52.1560176,6.14111328 L52.1560176,5.06201172 L50.6389277,5.06201172 L50.6389277,12 L52.2131465,12 Z M57.3664785,12 L57.3664785,9.5625 L57.9250723,9.00390625 L60.1530996,12 L62.0573965,12 L59.0993887,8.0390625 L61.8669668,5.06201172 L60.0388418,5.06201172 L57.4743887,7.90576172 L57.3664785,7.90576172 L57.3664785,2.37695312 L55.7922598,2.37695312 L55.7922598,12 L57.3664785,12 Z M65.5095566,12.1396484 C67.147252,12.1396484 68.308873,11.3525391 68.5945176,10.1020508 L67.1028184,10.1020508 C66.8743027,10.6225586 66.334752,10.9145508 65.5539902,10.9145508 C64.5193223,10.9145508 63.8528184,10.1782227 63.8147324,9.00390625 L63.8147324,8.92138672 L68.6643418,8.92138672 L68.6643418,8.41992188 C68.6643418,6.24267578 67.4773301,4.92871094 65.4968613,4.92871094 C63.4846543,4.92871094 62.234166,6.33154297 62.234166,8.55957031 C62.234166,10.78125 63.4656113,12.1396484 65.5095566,12.1396484 Z M67.090123,7.87402344 L63.8210801,7.87402344 C63.8909043,6.83300781 64.5510605,6.15380859 65.4905137,6.15380859 C66.4363145,6.15380859 67.0583848,6.8203125 67.090123,7.87402344 Z M72.4465801,12.1142578 C73.4114238,12.1142578 74.2112285,11.6635742 74.6047832,10.9018555 L74.7126934,10.9018555 L74.7126934,12 L76.2361309,12 L76.2361309,2.37695312 L74.6619121,2.37695312 L74.6619121,6.16650391 L74.554002,6.16650391 C74.1858379,5.40478516 73.3987285,4.94775391 72.4465801,4.94775391 C70.694627,4.94775391 69.5901348,6.33154297 69.5901348,8.52783203 C69.5901348,10.7304688 70.6882793,12.1142578 72.4465801,12.1142578 Z M72.9353496,10.8066406 C71.856248,10.8066406 71.2024395,9.95605469 71.2024395,8.53417969 C71.2024395,7.11865234 71.8625957,6.26171875 72.9353496,6.26171875 C74.0144512,6.26171875 74.6809551,7.13134766 74.6809551,8.53417969 C74.6809551,9.94335938 74.0207988,10.8066406 72.9353496,10.8066406 Z" id="Bookmarked"></path>
                    </g>
                    <path d="M34.7945762,34.2373047 C35.5001426,34.2373047 36.0728965,33.7973633 36.0728965,32.8261719 L36.0728965,18.6318359 C36.0728965,16.7890625 35.1017051,15.7929688 33.2672324,15.7929688 L25.1407676,15.7929688 C23.3062949,15.7929688 22.3268027,16.7890625 22.3268027,18.6318359 L22.3268027,32.8261719 C22.3268027,33.7973633 22.9078574,34.2373047 23.605123,34.2373047 C24.1197715,34.2373047 24.4352012,33.9716797 25.1905723,33.2744141 L28.8263145,29.8295898 C28.9923301,29.671875 29.1002402,29.6303711 29.1998496,29.6303711 C29.3077598,29.6303711 29.4156699,29.671875 29.5816855,29.8295898 L33.5577598,33.6064453 C33.9561973,33.9799805 34.2799277,34.2373047 34.7945762,34.2373047 Z" id="icon" fill="#FF9500" fill-rule="nonzero"></path>
                </g>
            </g>
        </g>
    </g>
</svg>