<?xml version="1.0" encoding="UTF-8"?>
<svg width="276px" height="134px" viewBox="0 0 276 134" version="1.1" xmlns="http://www.w3.org/2000/svg" xmlns:xlink="http://www.w3.org/1999/xlink">
    <title>error-preview</title>
    <defs>
        <rect id="path-1" x="0" y="0" width="196" height="50" rx="25"></rect>
        <filter x="-32.4%" y="-113.0%" width="164.8%" height="354.0%" filterUnits="objectBoundingBox" id="filter-2">
            <feOffset dx="0" dy="7" in="SourceAlpha" result="shadowOffsetOuter1"></feOffset>
            <feGaussianBlur stdDeviation="20" in="shadowOffsetOuter1" result="shadowBlurOuter1"></feGaussianBlur>
            <feColorMatrix values="0 0 0 0 0.118101482   0 0 0 0 0.118751665   0 0 0 0 0.127745697  0 0 0 0.164089816 0" type="matrix" in="shadowBlurOuter1"></feColorMatrix>
        </filter>
    </defs>
    <g id="Page-1" stroke="none" stroke-width="1" fill="none" fill-rule="evenodd">
        <g id="Artboard-Copy" transform="translate(-951.000000, -108.000000)">
            <g id="Group-2" transform="translate(730.000000, 141.000000)">
                <g id="error-preview" transform="translate(261.000000, 0.000000)">
                    <g id="Background">
                        <use fill="black" fill-opacity="1" filter="url(#filter-2)" xlink:href="#path-1"></use>
                        <use fill="#FFFFFF" fill-rule="evenodd" xlink:href="#path-1"></use>
                    </g>
                    <path d="M16.1678627,84.06628 L16.1678627,80.2996706 L18.4711474,80.2996706 L20.4759783,84.06628 L21.8449729,84.06628 L19.6779388,80.1149682 C20.8522896,79.738967 21.5594953,78.7099108 21.5594953,77.3840116 C21.5594953,75.668918 20.3786564,74.5475106 18.5749574,74.5475106 L15,74.5475106 L15,84.06628 L16.1678627,84.06628 Z M18.4711474,79.2442284 L16.1678627,79.2442284 L16.1678627,75.6029528 L18.4192424,75.6029528 C19.6260338,75.6029528 20.3527039,76.2823938 20.3527039,77.4235906 C20.3527039,78.5911736 19.6714507,79.2442284 18.4711474,79.2442284 Z M25.827696,84.1916137 C27.3588937,84.1916137 28.4488989,83.4396112 28.7733052,82.2258526 L27.6573475,82.2258526 C27.3653819,82.8525215 26.755498,83.1889437 25.8536485,83.1889437 C24.6663215,83.1889437 23.8942345,82.2984143 23.8358413,80.8933569 L23.8358413,80.8405848 L28.864139,80.8405848 L28.864139,80.4052149 C28.864139,78.1953827 27.7157407,76.8299044 25.827696,76.8299044 C23.9072107,76.8299044 22.6744668,78.2811374 22.6744668,80.5173556 C22.6744668,82.7667668 23.8877464,84.1916137 25.827696,84.1916137 Z M27.6897882,79.9236693 L23.8358413,79.9236693 C23.920187,78.6637352 24.6987621,77.8325745 25.8147198,77.8325745 C26.9241893,77.8325745 27.6638357,78.6637352 27.6897882,79.9236693 Z M32.2434664,84.1916137 C33.1777565,84.1916137 33.9433554,83.7760334 34.3975242,83.0174343 L34.5013342,83.0174343 L34.5013342,84.06628 L35.5653869,84.06628 L35.5653869,79.1980528 C35.5653869,77.7204338 34.6116323,76.8299044 32.9052552,76.8299044 C31.4129863,76.8299044 30.3100048,77.581907 30.1607779,78.7231038 L31.2897119,78.7231038 C31.4454269,78.1624002 32.0293582,77.839171 32.8663265,77.839171 C33.9109147,77.839171 34.4494292,78.3207165 34.4494292,79.1980528 L34.4494292,79.8445112 L32.431622,79.9698449 C30.8031024,80.0687927 29.8817885,80.8010057 29.8817885,82.0741328 C29.8817885,83.373646 30.8874481,84.1916137 32.2434664,84.1916137 Z M32.4510864,83.1955402 C31.6400707,83.1955402 31.036675,82.7733633 31.036675,82.0477468 C31.036675,81.3353233 31.50382,80.959322 32.5678727,80.8867604 L34.4494292,80.7614266 L34.4494292,81.4144815 C34.4494292,82.4303446 33.5994847,83.1955402 32.4510864,83.1955402 Z M39.8984688,84.1916137 C40.8651996,84.1916137 41.6956797,83.7232613 42.1368723,82.9316796 L42.2406823,82.9316796 L42.2406823,84.06628 L43.3047349,84.06628 L43.3047349,74.1319303 L42.1887773,74.1319303 L42.1887773,78.0766455 L42.0914554,78.0766455 C41.6956797,77.2982569 40.8716877,76.8299044 39.8984688,76.8299044 C38.1207223,76.8299044 36.9593477,78.2811374 36.9593477,80.5107591 C36.9593477,82.7469772 38.107746,84.1916137 39.8984688,84.1916137 Z M40.1579938,83.1691541 C38.879833,83.1691541 38.1142342,82.1730805 38.1142342,80.5107591 C38.1142342,78.8550341 38.8863212,77.852364 40.1579938,77.852364 C41.4231784,77.852364 42.2147298,78.8814202 42.2147298,80.5107591 C42.2147298,82.153291 41.4296665,83.1691541 40.1579938,83.1691541 Z M45.7497722,86.6389203 C46.9890043,86.6389203 47.5469831,86.1507783 48.1438907,84.5016499 L50.8753917,76.9552382 L49.6880647,76.9552382 L47.7740675,82.8063459 L47.6702575,82.8063459 L45.7497722,76.9552382 L44.5429808,76.9552382 L47.131743,84.0728765 L47.0019805,84.4950534 C46.7100149,85.3526002 46.3596561,85.6626363 45.7173316,85.6626363 C45.5616166,85.6626363 45.3864372,85.6560398 45.2501865,85.6296537 L45.2501865,86.5993413 C45.4059015,86.6257273 45.6005453,86.6389203 45.7497722,86.6389203 Z M56.1297875,80.7746196 L56.1297875,79.6993879 L51.8735769,79.6993879 L51.8735769,80.7746196 L56.1297875,80.7746196 Z M60.1903682,84.1916137 C61.260909,84.1916137 62.0070434,83.7430508 62.3574022,82.9514692 L62.4612123,82.9514692 L62.4612123,84.06628 L63.5252649,84.06628 L63.5252649,76.9552382 L62.4093073,76.9552382 L62.4093073,81.1638139 C62.4093073,82.410555 61.7345422,83.1559611 60.5017982,83.1559611 C59.3858406,83.1559611 58.9186955,82.5622748 58.9186955,81.2825512 L58.9186955,76.9552382 L57.8027378,76.9552382 L57.8027378,81.5596048 C57.8027378,83.2417158 58.6202417,84.1916137 60.1903682,84.1916137 Z M67.70912,84.1916137 C69.2987108,84.1916137 70.5119904,83.3142774 70.5119904,82.0411503 C70.5119904,81.0186906 69.876154,80.4381974 68.5590645,80.1149682 L67.4820356,79.8511077 C66.6580436,79.6466158 66.268756,79.3431761 66.268756,78.8550341 C66.268756,78.2217688 66.9175686,77.7929954 67.7480487,77.7929954 C68.5915051,77.7929954 69.1365077,78.1689967 69.2857346,78.7362969 L70.388716,78.7362969 C70.2394891,77.5687139 69.2208533,76.8299044 67.7545368,76.8299044 C66.268756,76.8299044 65.1463102,77.7204338 65.1463102,78.9012097 C65.1463102,79.9302659 65.7432178,80.5041626 67.0538192,80.8273917 L68.2541225,81.1242349 C69.000257,81.3089372 69.3635921,81.6387629 69.3635921,82.1269049 C69.3635921,82.7799598 68.688827,83.2351193 67.7480487,83.2351193 C66.8526873,83.2351193 66.2947085,82.8525215 66.1065529,82.2522387 L64.9581546,82.2522387 C65.081429,83.4330147 66.1519697,84.1916137 67.70912,84.1916137 Z M74.7477504,84.1916137 C76.2789481,84.1916137 77.3689533,83.4396112 77.6933596,82.2258526 L76.5774019,82.2258526 C76.2854363,82.8525215 75.6755524,83.1889437 74.7737029,83.1889437 C73.5863759,83.1889437 72.8142889,82.2984143 72.7558958,80.8933569 L72.7558958,80.8405848 L77.7841934,80.8405848 L77.7841934,80.4052149 C77.7841934,78.1953827 76.6357951,76.8299044 74.7477504,76.8299044 C72.8272651,76.8299044 71.5945212,78.2811374 71.5945212,80.5173556 C71.5945212,82.7667668 72.8078008,84.1916137 74.7477504,84.1916137 Z M76.6098426,79.9236693 L72.7558958,79.9236693 C72.8402414,78.6637352 73.6188165,77.8325745 74.7347742,77.8325745 C75.8442437,77.8325745 76.5838901,78.6637352 76.6098426,79.9236693 Z M84.5947532,84.1916137 C85.5290434,84.1916137 86.2946422,83.7760334 86.748811,83.0174343 L86.852621,83.0174343 L86.852621,84.06628 L87.9166737,84.06628 L87.9166737,79.1980528 C87.9166737,77.7204338 86.9629192,76.8299044 85.2565421,76.8299044 C83.7642731,76.8299044 82.6612917,77.581907 82.5120648,78.7231038 L83.6409987,78.7231038 C83.7967137,78.1624002 84.3806451,77.839171 85.2176133,77.839171 C86.2622016,77.839171 86.800716,78.3207165 86.800716,79.1980528 L86.800716,79.8445112 L84.7829089,79.9698449 C83.1543893,80.0687927 82.2330754,80.8010057 82.2330754,82.0741328 C82.2330754,83.373646 83.2387349,84.1916137 84.5947532,84.1916137 Z M84.8023732,83.1955402 C83.9913575,83.1955402 83.3879618,82.7733633 83.3879618,82.0477468 C83.3879618,81.3353233 83.8551069,80.959322 84.9191595,80.8867604 L86.800716,80.7614266 L86.800716,81.4144815 C86.800716,82.4303446 85.9507715,83.1955402 84.8023732,83.1955402 Z M90.776951,84.06628 L90.776951,79.8577042 C90.776951,78.6109631 91.497133,77.852364 92.6130907,77.852364 C93.7290484,77.852364 94.2610747,78.4592433 94.2610747,79.738967 L94.2610747,84.06628 L95.3770323,84.06628 L95.3770323,79.4619134 C95.3770323,77.7732059 94.5011353,76.8299044 92.9310089,76.8299044 C91.8604681,76.8299044 91.1792149,77.2916604 90.8288561,78.0766455 L90.725046,78.0766455 L90.725046,76.9552382 L89.6609934,76.9552382 L89.6609934,84.06628 L90.776951,84.06628 Z M97.6793309,75.5831633 C98.1075472,75.5831633 98.457906,75.2269516 98.457906,74.7915817 C98.457906,74.3562117 98.1075472,74 97.6793309,74 C97.2511146,74 96.9007557,74.3562117 96.9007557,74.7915817 C96.9007557,75.2269516 97.2511146,75.5831633 97.6793309,75.5831633 Z M98.2373097,84.06628 L98.2373097,76.9552382 L97.121352,76.9552382 L97.121352,84.06628 L98.2373097,84.06628 Z M101.162468,84.06628 L101.162468,79.6598088 C101.162468,78.6571387 101.869674,77.852364 102.7845,77.852364 C103.666885,77.852364 104.244328,78.3932782 104.244328,79.2376319 L104.244328,84.06628 L105.360286,84.06628 L105.360286,79.494896 C105.360286,78.5911736 106.009098,77.852364 106.982317,77.852364 C107.968512,77.852364 108.455122,78.3668921 108.455122,79.4157378 L108.455122,84.06628 L109.57108,84.06628 L109.57108,79.1518772 C109.57108,77.6610651 108.77304,76.8299044 107.345652,76.8299044 C106.378922,76.8299044 105.580882,77.3246429 105.204571,78.0766455 L105.100761,78.0766455 C104.776354,77.337836 104.114566,76.8299044 103.167299,76.8299044 C102.233009,76.8299044 101.532291,77.2850638 101.214373,78.0766455 L101.110563,78.0766455 L101.110563,76.9552382 L100.046511,76.9552382 L100.046511,84.06628 L101.162468,84.06628 Z M113.235884,84.1916137 C114.170175,84.1916137 114.935773,83.7760334 115.389942,83.0174343 L115.493752,83.0174343 L115.493752,84.06628 L116.557805,84.06628 L116.557805,79.1980528 C116.557805,77.7204338 115.60405,76.8299044 113.897673,76.8299044 C112.405404,76.8299044 111.302423,77.581907 111.153196,78.7231038 L112.28213,78.7231038 C112.437845,78.1624002 113.021776,77.839171 113.858745,77.839171 C114.903333,77.839171 115.441847,78.3207165 115.441847,79.1980528 L115.441847,79.8445112 L113.42404,79.9698449 C111.795521,80.0687927 110.874207,80.8010057 110.874207,82.0741328 C110.874207,83.373646 111.879866,84.1916137 113.235884,84.1916137 Z M113.443505,83.1955402 C112.632489,83.1955402 112.029093,82.7733633 112.029093,82.0477468 C112.029093,81.3353233 112.496238,80.959322 113.560291,80.8867604 L115.441847,80.7614266 L115.441847,81.4144815 C115.441847,82.4303446 114.591903,83.1955402 113.443505,83.1955402 Z M120.787077,84.1190521 C121.007673,84.1190521 121.221781,84.092666 121.442378,84.053087 L121.442378,83.0965925 C121.234758,83.116382 121.124459,83.1229785 120.923328,83.1229785 C120.196657,83.1229785 119.885227,82.7667668 119.885227,81.9290095 L119.885227,77.9051361 L121.442378,77.9051361 L121.442378,76.9552382 L119.885227,76.9552382 L119.885227,75.1148108 L118.76927,75.1148108 L118.76927,76.9552382 L117.640336,76.9552382 L117.640336,77.9051361 L118.76927,77.9051361 L118.76927,82.2192561 C118.76927,83.578138 119.346713,84.1190521 120.787077,84.1190521 Z M125.515935,84.1916137 C127.047132,84.1916137 128.137137,83.4396112 128.461544,82.2258526 L127.345586,82.2258526 C127.05362,82.8525215 126.443737,83.1889437 125.541887,83.1889437 C124.35456,83.1889437 123.582473,82.2984143 123.52408,80.8933569 L123.52408,80.8405848 L128.552377,80.8405848 L128.552377,80.4052149 C128.552377,78.1953827 127.403979,76.8299044 125.515935,76.8299044 C123.595449,76.8299044 122.362705,78.2811374 122.362705,80.5173556 C122.362705,82.7667668 123.575985,84.1916137 125.515935,84.1916137 Z M127.378027,79.9236693 L123.52408,79.9236693 C123.608425,78.6637352 124.387001,77.8325745 125.502958,77.8325745 C126.612428,77.8325745 127.352074,78.6637352 127.378027,79.9236693 Z M132.574029,84.1916137 C133.54076,84.1916137 134.37124,83.7232613 134.812433,82.9316796 L134.916243,82.9316796 L134.916243,84.06628 L135.980295,84.06628 L135.980295,74.1319303 L134.864338,74.1319303 L134.864338,78.0766455 L134.767016,78.0766455 C134.37124,77.2982569 133.547248,76.8299044 132.574029,76.8299044 C130.796283,76.8299044 129.634908,78.2811374 129.634908,80.5107591 C129.634908,82.7469772 130.783307,84.1916137 132.574029,84.1916137 Z M132.833554,83.1691541 C131.555394,83.1691541 130.789795,82.1730805 130.789795,80.5107591 C130.789795,78.8550341 131.561882,77.852364 132.833554,77.852364 C134.098739,77.852364 134.89029,78.8814202 134.89029,80.5107591 C134.89029,82.153291 134.105227,83.1691541 132.833554,83.1691541 Z M142.375615,86.4410249 L142.375615,82.9976448 L142.479425,82.9976448 C142.862225,83.7496473 143.666752,84.1916137 144.665924,84.1916137 C146.44367,84.1916137 147.605045,82.7337842 147.605045,80.5107591 C147.605045,78.2745409 146.450158,76.8299044 144.665924,76.8299044 C143.712169,76.8299044 142.875201,77.3246429 142.42752,78.1426106 L142.32371,78.1426106 L142.32371,76.9552382 L141.259658,76.9552382 L141.259658,86.4410249 L142.375615,86.4410249 Z M144.399911,83.1691541 C143.141214,83.1691541 142.343175,82.140098 142.343175,80.5107591 C142.343175,78.8748237 143.141214,77.852364 144.406399,77.852364 C145.68456,77.852364 146.450158,78.8484376 146.450158,80.5107591 C146.450158,82.1730805 145.68456,83.1691541 144.399911,83.1691541 Z M150.153892,84.06628 L150.153892,79.6598088 C150.153892,78.6571387 150.925979,77.9315222 151.990032,77.9315222 C152.210628,77.9315222 152.612892,77.9711013 152.703726,77.9974873 L152.703726,76.862887 C152.560987,76.8430974 152.327414,76.8299044 152.145747,76.8299044 C151.217945,76.8299044 150.413417,77.3180464 150.205797,78.0106804 L150.101987,78.0106804 L150.101987,76.9552382 L149.037934,76.9552382 L149.037934,84.06628 L150.153892,84.06628 Z M156.387995,84.1916137 C157.919193,84.1916137 159.009198,83.4396112 159.333604,82.2258526 L158.217646,82.2258526 C157.925681,82.8525215 157.315797,83.1889437 156.413947,83.1889437 C155.22662,83.1889437 154.454533,82.2984143 154.39614,80.8933569 L154.39614,80.8405848 L159.424438,80.8405848 L159.424438,80.4052149 C159.424438,78.1953827 158.27604,76.8299044 156.387995,76.8299044 C154.46751,76.8299044 153.234766,78.2811374 153.234766,80.5173556 C153.234766,82.7667668 154.448045,84.1916137 156.387995,84.1916137 Z M158.250087,79.9236693 L154.39614,79.9236693 C154.480486,78.6637352 155.259061,77.8325745 156.375019,77.8325745 C157.484488,77.8325745 158.224135,78.6637352 158.250087,79.9236693 Z M163.257934,84.1916137 C164.847525,84.1916137 166.060805,83.3142774 166.060805,82.0411503 C166.060805,81.0186906 165.424968,80.4381974 164.107879,80.1149682 L163.03085,79.8511077 C162.206858,79.6466158 161.81757,79.3431761 161.81757,78.8550341 C161.81757,78.2217688 162.466383,77.7929954 163.296863,77.7929954 C164.140319,77.7929954 164.685322,78.1689967 164.834549,78.7362969 L165.93753,78.7362969 C165.788303,77.5687139 164.769667,76.8299044 163.303351,76.8299044 C161.81757,76.8299044 160.695124,77.7204338 160.695124,78.9012097 C160.695124,79.9302659 161.292032,80.5041626 162.602633,80.8273917 L163.802937,81.1242349 C164.549071,81.3089372 164.912406,81.6387629 164.912406,82.1269049 C164.912406,82.7799598 164.237641,83.2351193 163.296863,83.2351193 C162.401501,83.2351193 161.843523,82.8525215 161.655367,82.2522387 L160.506969,82.2522387 C160.630243,83.4330147 161.700784,84.1916137 163.257934,84.1916137 Z M170.296565,84.1916137 C171.827762,84.1916137 172.917767,83.4396112 173.242174,82.2258526 L172.126216,82.2258526 C171.83425,82.8525215 171.224367,83.1889437 170.322517,83.1889437 C169.13519,83.1889437 168.363103,82.2984143 168.30471,80.8933569 L168.30471,80.8405848 L173.333008,80.8405848 L173.333008,80.4052149 C173.333008,78.1953827 172.184609,76.8299044 170.296565,76.8299044 C168.376079,76.8299044 167.143335,78.2811374 167.143335,80.5173556 C167.143335,82.7667668 168.356615,84.1916137 170.296565,84.1916137 Z M172.158657,79.9236693 L168.30471,79.9236693 C168.389056,78.6637352 169.167631,77.8325745 170.283588,77.8325745 C171.393058,77.8325745 172.132704,78.6637352 172.158657,79.9236693 Z M177.250849,84.1190521 C177.471446,84.1190521 177.685554,84.092666 177.90615,84.053087 L177.90615,83.0965925 C177.69853,83.116382 177.588232,83.1229785 177.3871,83.1229785 C176.66043,83.1229785 176.349,82.7667668 176.349,81.9290095 L176.349,77.9051361 L177.90615,77.9051361 L177.90615,76.9552382 L176.349,76.9552382 L176.349,75.1148108 L175.233042,75.1148108 L175.233042,76.9552382 L174.104108,76.9552382 L174.104108,77.9051361 L175.233042,77.9051361 L175.233042,82.2192561 C175.233042,83.578138 175.810485,84.1190521 177.250849,84.1190521 Z M179.981364,86.4872005 L181,82.7337842 L179.760768,82.7337842 L179.144396,86.4872005 L179.981364,86.4872005 Z M55.7043222,100.157576 C57.3847468,100.157576 58.4293351,99.1944847 58.630467,97.888375 L57.5015331,97.888375 C57.293913,98.6931497 56.6386123,99.1351161 55.6978341,99.1351161 C54.4521139,99.1351161 53.6475863,98.092867 53.6475863,96.450335 C53.6475863,94.8407857 54.4391376,93.818326 55.6978341,93.818326 C56.7034936,93.818326 57.3198655,94.3922227 57.5015331,95.0980497 L58.630467,95.0980497 C58.4358232,93.8315191 57.3977231,92.7958664 55.6978341,92.7958664 C53.73842,92.7958664 52.4926998,94.2339064 52.4926998,96.450335 C52.4926998,98.7129392 53.7449082,100.157576 55.7043222,100.157576 Z M61.1403855,100.032242 L61.1403855,95.8236662 C61.1403855,94.6231007 61.8281269,93.818326 63.0803352,93.818326 C64.1378997,93.818326 64.6958786,94.4449948 64.6958786,95.704929 L64.6958786,100.032242 L65.8118362,100.032242 L65.8118362,95.4278754 C65.8118362,93.7589574 64.8775461,92.7958664 63.3982534,92.7958664 C62.3277126,92.7958664 61.5945544,93.2576224 61.2441956,94.0426075 L61.1403855,94.0426075 L61.1403855,90.0978923 L60.0244279,90.0978923 L60.0244279,100.032242 L61.1403855,100.032242 Z M70.4044432,100.157576 C72.3962979,100.157576 73.6290418,98.7591148 73.6290418,96.4767211 C73.6290418,94.1877308 72.3962979,92.7958664 70.4044432,92.7958664 C68.4125885,92.7958664 67.1798446,94.1877308 67.1798446,96.4767211 C67.1798446,98.7591148 68.4125885,100.157576 70.4044432,100.157576 Z M70.4044432,99.1351161 C69.0808655,99.1351161 68.334731,98.1588321 68.334731,96.4767211 C68.334731,94.7880136 69.0808655,93.818326 70.4044432,93.818326 C71.7280209,93.818326 72.4741554,94.7880136 72.4741554,96.4767211 C72.4741554,98.1588321 71.7280209,99.1351161 70.4044432,99.1351161 Z M77.9361712,100.157576 C79.9280259,100.157576 81.1607698,98.7591148 81.1607698,96.4767211 C81.1607698,94.1877308 79.9280259,92.7958664 77.9361712,92.7958664 C75.9443166,92.7958664 74.7115726,94.1877308 74.7115726,96.4767211 C74.7115726,98.7591148 75.9443166,100.157576 77.9361712,100.157576 Z M77.9361712,99.1351161 C76.6125935,99.1351161 75.866459,98.1588321 75.866459,96.4767211 C75.866459,94.7880136 76.6125935,93.818326 77.9361712,93.818326 C79.2597489,93.818326 80.0058834,94.7880136 80.0058834,96.4767211 C80.0058834,98.1588321 79.2597489,99.1351161 77.9361712,99.1351161 Z M84.9942661,100.157576 C86.5838569,100.157576 87.7971365,99.2802394 87.7971365,98.0071123 C87.7971365,96.9846526 87.1613001,96.4041594 85.8442106,96.0809303 L84.7671817,95.8170697 C83.9431897,95.6125778 83.5539021,95.3091382 83.5539021,94.8209961 C83.5539021,94.1877308 84.2027147,93.7589574 85.0331948,93.7589574 C85.8766512,93.7589574 86.4216538,94.1349587 86.5708807,94.7022589 L87.6738621,94.7022589 C87.5246352,93.534676 86.5059994,92.7958664 85.0396829,92.7958664 C83.5539021,92.7958664 82.4314563,93.6863958 82.4314563,94.8671717 C82.4314563,95.8962279 83.0283639,96.4701246 84.3389653,96.7933537 L85.5392686,97.0901969 C86.2854031,97.2748992 86.6487382,97.6047249 86.6487382,98.092867 C86.6487382,98.7459218 85.9739731,99.2010813 85.0331948,99.2010813 C84.1378334,99.2010813 83.5798546,98.8184835 83.391699,98.2182007 L82.2433007,98.2182007 C82.3665751,99.3989767 83.4371158,100.157576 84.9942661,100.157576 Z M92.0328965,100.157576 C93.5640942,100.157576 94.6540994,99.4055732 94.9785057,98.1918147 L93.862548,98.1918147 C93.5705824,98.8184835 92.9606985,99.1549057 92.058849,99.1549057 C90.871522,99.1549057 90.099435,98.2643763 90.0410419,96.8593189 L90.0410419,96.8065468 L95.0693395,96.8065468 L95.0693395,96.3711769 C95.0693395,94.1613448 93.9209412,92.7958664 92.0328965,92.7958664 C90.1124112,92.7958664 88.8796673,94.2470994 88.8796673,96.4833176 C88.8796673,98.7327288 90.0929469,100.157576 92.0328965,100.157576 Z M93.8949887,95.8896314 L90.0410419,95.8896314 C90.1253875,94.6296972 90.9039626,93.7985365 92.0199203,93.7985365 C93.1293898,93.7985365 93.8690362,94.6296972 93.8949887,95.8896314 Z M103.450026,91.9317231 L102.301628,89.6889084 L100.965074,89.6889084 L102.463831,91.9317231 L103.450026,91.9317231 Z M107.179712,100.098207 C107.646857,100.098207 108.023168,99.7090128 108.023168,99.2406603 C108.023168,98.7657114 107.646857,98.3831136 107.179712,98.3831136 C106.719055,98.3831136 106.336256,98.7657114 106.336256,99.2406603 C106.336256,99.7090128 106.719055,100.098207 107.179712,100.098207 Z M112.42762,100.157576 C113.958817,100.157576 115.048823,99.4055732 115.373229,98.1918147 L114.257271,98.1918147 C113.965306,98.8184835 113.355422,99.1549057 112.453572,99.1549057 C111.266245,99.1549057 110.494158,98.2643763 110.435765,96.8593189 L110.435765,96.8065468 L115.464063,96.8065468 L115.464063,96.3711769 C115.464063,94.1613448 114.315664,92.7958664 112.42762,92.7958664 C110.507134,92.7958664 109.274391,94.2470994 109.274391,96.4833176 C109.274391,98.7327288 110.48767,100.157576 112.42762,100.157576 Z M114.289712,95.8896314 L110.435765,95.8896314 C110.520111,94.6296972 111.298686,93.7985365 112.414643,93.7985365 C113.524113,93.7985365 114.263759,94.6296972 114.289712,95.8896314 Z M118.01291,100.032242 L118.01291,95.6257708 C118.01291,94.6231007 118.784997,93.8974842 119.84905,93.8974842 C120.069646,93.8974842 120.47191,93.9370633 120.562743,93.9634493 L120.562743,92.828849 C120.420005,92.8090594 120.186432,92.7958664 120.004765,92.7958664 C119.076963,92.7958664 118.272435,93.2840084 118.064815,93.9766424 L117.961005,93.9766424 L117.961005,92.9212002 L116.896952,92.9212002 L116.896952,100.032242 L118.01291,100.032242 Z M122.884506,100.032242 L122.884506,95.6257708 C122.884506,94.6231007 123.656593,93.8974842 124.720646,93.8974842 C124.941242,93.8974842 125.343506,93.9370633 125.43434,93.9634493 L125.43434,92.828849 C125.291601,92.8090594 125.058029,92.7958664 124.876361,92.7958664 C123.948559,92.7958664 123.144031,93.2840084 122.936411,93.9766424 L122.832601,93.9766424 L122.832601,92.9212002 L121.768549,92.9212002 L121.768549,100.032242 L122.884506,100.032242 Z M129.189979,100.157576 C131.181833,100.157576 132.414577,98.7591148 132.414577,96.4767211 C132.414577,94.1877308 131.181833,92.7958664 129.189979,92.7958664 C127.198124,92.7958664 125.96538,94.1877308 125.96538,96.4767211 C125.96538,98.7591148 127.198124,100.157576 129.189979,100.157576 Z M129.189979,99.1351161 C127.866401,99.1351161 127.120266,98.1588321 127.120266,96.4767211 C127.120266,94.7880136 127.866401,93.818326 129.189979,93.818326 C130.513556,93.818326 131.259691,94.7880136 131.259691,96.4767211 C131.259691,98.1588321 130.513556,99.1351161 129.189979,99.1351161 Z M134.963424,100.032242 L134.963424,95.6257708 C134.963424,94.6231007 135.735511,93.8974842 136.799564,93.8974842 C137.02016,93.8974842 137.422424,93.9370633 137.513258,93.9634493 L137.513258,92.828849 C137.370519,92.8090594 137.136947,92.7958664 136.955279,92.7958664 C136.027477,92.7958664 135.22295,93.2840084 135.015329,93.9766424 L134.911519,93.9766424 L134.911519,92.9212002 L133.847467,92.9212002 L133.847467,100.032242 L134.963424,100.032242 Z M142.105865,91.9317231 L140.957467,89.6889084 L139.620913,89.6889084 L141.11967,91.9317231 L142.105865,91.9317231 Z" id="Ready-useanimatedpreset,choose`.error`" fill="#000000" fill-rule="nonzero" opacity="0.300000012"></path>
                    <g id="Titles" transform="translate(69.000000, 9.000000)" fill="#000000" fill-rule="nonzero">
                        <path d="M20.8361523,12 L20.8361523,10.6225586 L16.5451367,10.6225586 L16.5451367,8.00097656 L20.6012891,8.00097656 L20.6012891,6.69970703 L16.5451367,6.69970703 L16.5451367,4.21777344 L20.8361523,4.21777344 L20.8361523,2.84033203 L14.9074414,2.84033203 L14.9074414,12 L20.8361523,12 Z M23.964582,12 L23.964582,7.96923828 C23.964582,6.99169922 24.6755195,6.35693359 25.6974922,6.35693359 C25.9640937,6.35693359 26.3830391,6.40136719 26.5036445,6.44580078 L26.5036445,5.01123047 C26.3576484,4.97314453 26.0783516,4.94775391 25.8498359,4.94775391 C24.9548164,4.94775391 24.205793,5.45556641 24.0153633,6.14111328 L23.9074531,6.14111328 L23.9074531,5.06201172 L22.3903633,5.06201172 L22.3903633,12 L23.964582,12 Z M29.1433047,12 L29.1433047,7.96923828 C29.1433047,6.99169922 29.8542422,6.35693359 30.8762148,6.35693359 C31.1428164,6.35693359 31.5617617,6.40136719 31.6823672,6.44580078 L31.6823672,5.01123047 C31.5363711,4.97314453 31.2570742,4.94775391 31.0285586,4.94775391 C30.1335391,4.94775391 29.3845156,5.45556641 29.1940859,6.14111328 L29.0861758,6.14111328 L29.0861758,5.06201172 L27.5690859,5.06201172 L27.5690859,12 L29.1433047,12 Z M35.4836484,12.1396484 C37.559332,12.1396484 38.8225156,10.78125 38.8225156,8.52783203 C38.8225156,6.28710938 37.5529844,4.92871094 35.4836484,4.92871094 C33.4206602,4.92871094 32.1447813,6.29345703 32.1447813,8.52783203 C32.1447813,10.78125 33.4016172,12.1396484 35.4836484,12.1396484 Z M35.4836484,10.8510742 C34.3855039,10.8510742 33.7570859,10.0004883 33.7570859,8.53417969 C33.7570859,7.06787109 34.3855039,6.21728516 35.4836484,6.21728516 C36.5754453,6.21728516 37.2038633,7.06787109 37.2038633,8.53417969 C37.2038633,10.0004883 36.581793,10.8510742 35.4836484,10.8510742 Z M41.6716484,12 L41.6716484,7.96923828 C41.6716484,6.99169922 42.3825859,6.35693359 43.4045586,6.35693359 C43.6711602,6.35693359 44.0901055,6.40136719 44.2107109,6.44580078 L44.2107109,5.01123047 C44.0647148,4.97314453 43.785418,4.94775391 43.5569023,4.94775391 C42.6618828,4.94775391 41.9128594,5.45556641 41.7224297,6.14111328 L41.6145195,6.14111328 L41.6145195,5.06201172 L40.0974297,5.06201172 L40.0974297,12 L41.6716484,12 Z" id="Error" opacity="0.600000024"></path>
                        <path d="M5.38471289,28 L5.38471289,20.2177734 L8.20941992,20.2177734 L8.20941992,18.840332 L0.928658203,18.840332 L0.928658203,20.2177734 L3.74701758,20.2177734 L3.74701758,28 L5.38471289,28 Z M10.2079668,28 L10.2079668,23.9692383 C10.2079668,22.9916992 10.9189043,22.3569336 11.940877,22.3569336 C12.2074785,22.3569336 12.6264238,22.4013672 12.7470293,22.4458008 L12.7470293,21.0112305 C12.6010332,20.9731445 12.3217363,20.9477539 12.0932207,20.9477539 C11.1982012,20.9477539 10.4491777,21.4555664 10.258748,22.1411133 L10.1508379,22.1411133 L10.1508379,21.0620117 L8.63374805,21.0620117 L8.63374805,28 L10.2079668,28 Z M14.5487988,30.5136719 C16.1039746,30.5136719 16.8466504,29.9487305 17.4369824,28.2412109 L19.9443066,21.0620117 L18.2812207,21.0620117 L16.6625684,26.5083008 L16.5546582,26.5083008 L14.9296582,21.0620117 L13.2030957,21.0620117 L15.6850293,28.0253906 L15.6025098,28.3491211 C15.3993848,29.0029297 15.024873,29.2568359 14.3583691,29.2568359 C14.250459,29.2568359 14.0155957,29.2504883 13.9267285,29.237793 L13.9267285,30.4882812 C14.028291,30.5073242 14.453584,30.5136719 14.5487988,30.5136719 Z M25.2807559,28 L26.0678652,25.6323242 L29.4384707,25.6323242 L30.2128848,28 L31.9711855,28 L28.7148379,18.840332 L26.8740176,18.840332 L23.6240176,28 L25.2807559,28 Z M29.0576113,24.3691406 L26.4487246,24.3691406 L27.7055605,20.5605469 L27.8134707,20.5605469 L29.0576113,24.3691406 Z M35.6709043,30.640625 C37.6958066,30.640625 38.9780332,29.6313477 38.9780332,28.0380859 L38.9780332,21.0620117 L37.4609434,21.0620117 L37.4609434,22.1728516 L37.3530332,22.1728516 C36.9721738,21.4174805 36.1469785,20.9477539 35.2011777,20.9477539 C33.4301816,20.9477539 32.3320371,22.331543 32.3320371,24.4580078 C32.3320371,26.5400391 33.423834,27.8984375 35.1757871,27.8984375 C36.1406309,27.8984375 36.896002,27.4921875 37.2959043,26.7431641 L37.4038145,26.7431641 L37.4038145,28.0634766 C37.4038145,28.9458008 36.7753965,29.4663086 35.6962949,29.4663086 C34.8330137,29.4663086 34.2744199,29.1552734 34.1728574,28.6665039 L32.592291,28.6665039 C32.7192441,29.8598633 33.8872129,30.640625 35.6709043,30.640625 Z M35.6709043,26.6479492 C34.5727598,26.6479492 33.9506895,25.7973633 33.9506895,24.4516602 C33.9506895,23.1123047 34.5727598,22.2617188 35.6709043,22.2617188 C36.7627012,22.2617188 37.4292051,23.1123047 37.4292051,24.4580078 C37.4292051,25.7973633 36.7690488,26.6479492 35.6709043,26.6479492 Z M42.5063652,28.1142578 C43.4140801,28.1142578 44.1757988,27.7207031 44.5630059,27.0478516 L44.670916,27.0478516 L44.670916,28 L46.1880059,28 L46.1880059,23.2583008 C46.1880059,21.7919922 45.1850762,20.9287109 43.4013848,20.9287109 C41.7509941,20.9287109 40.6020684,21.703125 40.4751152,22.9155273 L41.9604668,22.9155273 C42.1064629,22.4394531 42.6015801,22.1791992 43.3252129,22.1791992 C44.1757988,22.1791992 44.6328301,22.5664062 44.6328301,23.2583008 L44.6328301,23.8549805 L42.842791,23.9628906 C41.1543145,24.0581055 40.2085137,24.7880859 40.2085137,26.0322266 C40.2085137,27.3017578 41.1670098,28.1142578 42.5063652,28.1142578 Z M42.9697441,26.9018555 C42.271502,26.9018555 41.7700371,26.5527344 41.7700371,25.9560547 C41.7700371,25.378418 42.1826348,25.0546875 43.064959,24.9975586 L44.6328301,24.8896484 L44.6328301,25.4545898 C44.6328301,26.2797852 43.9218926,26.9018555 42.9697441,26.9018555 Z M48.5674121,19.9003906 C49.0879199,19.9003906 49.5132129,19.487793 49.5132129,18.9672852 C49.5132129,18.453125 49.0879199,18.0341797 48.5674121,18.0341797 C48.053252,18.0341797 47.627959,18.453125 47.627959,18.9672852 C47.627959,19.487793 48.053252,19.9003906 48.5674121,19.9003906 Z M49.3545215,28 L49.3545215,21.0620117 L47.7866504,21.0620117 L47.7866504,28 L49.3545215,28 Z M52.5654707,28 L52.5654707,23.956543 C52.5654707,22.9155273 53.1558027,22.2617188 54.0952559,22.2617188 C55.053752,22.2617188 55.4980879,22.8012695 55.4980879,23.8803711 L55.4980879,28 L57.0723066,28 L57.0723066,23.512207 C57.0723066,21.8618164 56.2280684,20.9287109 54.6792402,20.9287109 C53.6445723,20.9287109 52.9463301,21.3984375 52.616252,22.1728516 L52.5083418,22.1728516 L52.5083418,21.0620117 L50.991252,21.0620117 L50.991252,28 L52.5654707,28 Z" id="TryAgain" opacity="0.300000012"></path>
                    </g>
                    <path d="M36.2571641,32.2480469 C36.8050156,31.7001953 36.8050156,30.7763672 36.2679062,30.2392578 L31.2835312,25.265625 L36.2679062,20.28125 C36.8050156,19.7441406 36.8050156,18.8203125 36.2571641,18.2724609 C35.7093125,17.7138672 34.7854844,17.7246094 34.248375,18.2617188 L29.264,23.2353516 L24.279625,18.2509766 C23.764,17.7353516 22.8186875,17.7138672 22.2708359,18.2617188 C21.7122422,18.8095703 21.7337266,19.7548828 22.2600937,20.28125 L27.2444687,25.265625 L22.2600937,30.25 C21.7337266,30.765625 21.7122422,31.7109375 22.2708359,32.2587891 C22.8186875,32.8066406 23.764,32.7851562 24.279625,32.2695312 L29.264,27.2851562 L34.248375,32.2587891 C34.7854844,32.7958984 35.7093125,32.8066406 36.2571641,32.2480469 Z" id="icon" fill="#FF3B30" fill-rule="nonzero"></path>
                </g>
            </g>
        </g>
    </g>
</svg>