<?xml version="1.0" encoding="UTF-8"?>
<svg width="218px" height="130px" viewBox="0 0 218 130" version="1.1" xmlns="http://www.w3.org/2000/svg" xmlns:xlink="http://www.w3.org/1999/xlink">
    <title>bookmarked-preview</title>
    <defs>
        <rect id="path-1" x="0" y="0" width="138" height="50" rx="25"></rect>
        <filter x="-46.0%" y="-113.0%" width="192.0%" height="354.0%" filterUnits="objectBoundingBox" id="filter-2">
            <feOffset dx="0" dy="7" in="SourceAlpha" result="shadowOffsetOuter1"></feOffset>
            <feGaussianBlur stdDeviation="20" in="shadowOffsetOuter1" result="shadowBlurOuter1"></feGaussianBlur>
            <feColorMatrix values="0 0 0 0 0.118101482   0 0 0 0 0.118751665   0 0 0 0 0.127745697  0 0 0 0.16 0" type="matrix" in="shadowBlurOuter1"></feColorMatrix>
        </filter>
    </defs>
    <g id="Page-1" stroke="none" stroke-width="1" fill="none" fill-rule="evenodd">
        <g id="Artboard-Copy" transform="translate(-980.000000, -385.000000)">
            <g id="Group-2" transform="translate(730.000000, 141.000000)">
                <g id="bookmarked-preview" transform="translate(290.000000, 277.000000)">
                    <g id="Background">
                        <use fill="black" fill-opacity="1" filter="url(#filter-2)" xlink:href="#path-1"></use>
                        <use fill="#FFFFFF" fill-rule="evenodd" xlink:href="#path-1"></use>
                    </g>
                    <g id="Titles" transform="translate(30.500000, 17.000000)" fill="#000000" fill-rule="nonzero" opacity="0.600000024">
                        <path d="M5.1002832,12 C7.05536133,12 8.2487207,11.0097656 8.2487207,9.39746094 C8.2487207,8.20410156 7.39813477,7.31542969 6.16668945,7.20117188 L6.16668945,7.08691406 C7.08709961,6.94091797 7.79803711,6.09033203 7.79803711,5.12548828 C7.79803711,3.71630859 6.75067383,2.84033203 5.01141602,2.84033203 L1.1837793,2.84033203 L1.1837793,12 L5.1002832,12 Z M4.40204102,6.69970703 L2.82147461,6.69970703 L2.82147461,4.11621094 L4.61151367,4.11621094 C5.60174805,4.11621094 6.17938477,4.59228516 6.17938477,5.41113281 C6.17938477,6.24902344 5.56366211,6.69970703 4.40204102,6.69970703 Z M4.72577148,10.7241211 L2.82147461,10.7241211 L2.82147461,7.86132812 L4.66229492,7.86132812 C5.9127832,7.86132812 6.57293945,8.35009766 6.57293945,9.28320312 C6.57293945,10.2226562 5.93182617,10.7241211 4.72577148,10.7241211 Z M12.5451191,12.1396484 C14.6208027,12.1396484 15.8839863,10.78125 15.8839863,8.52783203 C15.8839863,6.28710938 14.6144551,4.92871094 12.5451191,4.92871094 C10.4821309,4.92871094 9.20625195,6.29345703 9.20625195,8.52783203 C9.20625195,10.78125 10.4630879,12.1396484 12.5451191,12.1396484 Z M12.5451191,10.8510742 C11.4469746,10.8510742 10.8185566,10.0004883 10.8185566,8.53417969 C10.8185566,7.06787109 11.4469746,6.21728516 12.5451191,6.21728516 C13.636916,6.21728516 14.265334,7.06787109 14.265334,8.53417969 C14.265334,10.0004883 13.6432637,10.8510742 12.5451191,10.8510742 Z M20.1549941,12.1396484 C22.2306777,12.1396484 23.4938613,10.78125 23.4938613,8.52783203 C23.4938613,6.28710938 22.2243301,4.92871094 20.1549941,4.92871094 C18.0920059,4.92871094 16.816127,6.29345703 16.816127,8.52783203 C16.816127,10.78125 18.0729629,12.1396484 20.1549941,12.1396484 Z M20.1549941,10.8510742 C19.0568496,10.8510742 18.4284316,10.0004883 18.4284316,8.53417969 C18.4284316,7.06787109 19.0568496,6.21728516 20.1549941,6.21728516 C21.246791,6.21728516 21.875209,7.06787109 21.875209,8.53417969 C21.875209,10.0004883 21.2531387,10.8510742 20.1549941,10.8510742 Z M26.4064707,12 L26.4064707,9.5625 L26.9650645,9.00390625 L29.1930918,12 L31.0973887,12 L28.1393809,8.0390625 L30.906959,5.06201172 L29.078834,5.06201172 L26.5143809,7.90576172 L26.4064707,7.90576172 L26.4064707,2.37695312 L24.832252,2.37695312 L24.832252,12 L26.4064707,12 Z M33.5720098,12 L33.5720098,7.77880859 C33.5720098,6.91552734 34.1496465,6.26171875 34.9304082,6.26171875 C35.7048223,6.26171875 36.1872441,6.73144531 36.1872441,7.49951172 L36.1872441,12 L37.7170293,12 L37.7170293,7.66455078 C37.7170293,6.87109375 38.2565801,6.26171875 39.0754277,6.26171875 C39.919666,6.26171875 40.344959,6.71240234 40.344959,7.61376953 L40.344959,12 L41.9128301,12 L41.9128301,7.2265625 C41.9128301,5.78564453 41.0749395,4.92871094 39.6848027,4.92871094 C38.719959,4.92871094 37.9201543,5.42382812 37.5773809,6.17919922 L37.4694707,6.17919922 C37.1774785,5.41113281 36.5109746,4.92871094 35.5524785,4.92871094 C34.6320684,4.92871094 33.9211309,5.3984375 33.622791,6.17919922 L33.5148809,6.17919922 L33.5148809,5.06201172 L31.997791,5.06201172 L31.997791,12 L33.5720098,12 Z M45.3776855,12.1142578 C46.2854004,12.1142578 47.0471191,11.7207031 47.4343262,11.0478516 L47.5422363,11.0478516 L47.5422363,12 L49.0593262,12 L49.0593262,7.25830078 C49.0593262,5.79199219 48.0563965,4.92871094 46.2727051,4.92871094 C44.6223145,4.92871094 43.4733887,5.703125 43.3464355,6.91552734 L44.8317871,6.91552734 C44.9777832,6.43945312 45.4729004,6.17919922 46.1965332,6.17919922 C47.0471191,6.17919922 47.5041504,6.56640625 47.5041504,7.25830078 L47.5041504,7.85498047 L45.7141113,7.96289062 C44.0256348,8.05810547 43.079834,8.78808594 43.079834,10.0322266 C43.079834,11.3017578 44.0383301,12.1142578 45.3776855,12.1142578 Z M45.8410645,10.9018555 C45.1428223,10.9018555 44.6413574,10.5527344 44.6413574,9.95605469 C44.6413574,9.37841797 45.0539551,9.0546875 45.9362793,8.99755859 L47.5041504,8.88964844 L47.5041504,9.45458984 C47.5041504,10.2797852 46.7932129,10.9018555 45.8410645,10.9018555 Z M52.2131465,12 L52.2131465,7.96923828 C52.2131465,6.99169922 52.924084,6.35693359 53.9460566,6.35693359 C54.2126582,6.35693359 54.6316035,6.40136719 54.752209,6.44580078 L54.752209,5.01123047 C54.6062129,4.97314453 54.326916,4.94775391 54.0984004,4.94775391 C53.2033809,4.94775391 52.4543574,5.45556641 52.2639277,6.14111328 L52.1560176,6.14111328 L52.1560176,5.06201172 L50.6389277,5.06201172 L50.6389277,12 L52.2131465,12 Z M57.3664785,12 L57.3664785,9.5625 L57.9250723,9.00390625 L60.1530996,12 L62.0573965,12 L59.0993887,8.0390625 L61.8669668,5.06201172 L60.0388418,5.06201172 L57.4743887,7.90576172 L57.3664785,7.90576172 L57.3664785,2.37695312 L55.7922598,2.37695312 L55.7922598,12 L57.3664785,12 Z M65.5095566,12.1396484 C67.147252,12.1396484 68.308873,11.3525391 68.5945176,10.1020508 L67.1028184,10.1020508 C66.8743027,10.6225586 66.334752,10.9145508 65.5539902,10.9145508 C64.5193223,10.9145508 63.8528184,10.1782227 63.8147324,9.00390625 L63.8147324,8.92138672 L68.6643418,8.92138672 L68.6643418,8.41992188 C68.6643418,6.24267578 67.4773301,4.92871094 65.4968613,4.92871094 C63.4846543,4.92871094 62.234166,6.33154297 62.234166,8.55957031 C62.234166,10.78125 63.4656113,12.1396484 65.5095566,12.1396484 Z M67.090123,7.87402344 L63.8210801,7.87402344 C63.8909043,6.83300781 64.5510605,6.15380859 65.4905137,6.15380859 C66.4363145,6.15380859 67.0583848,6.8203125 67.090123,7.87402344 Z M72.4465801,12.1142578 C73.4114238,12.1142578 74.2112285,11.6635742 74.6047832,10.9018555 L74.7126934,10.9018555 L74.7126934,12 L76.2361309,12 L76.2361309,2.37695312 L74.6619121,2.37695312 L74.6619121,6.16650391 L74.554002,6.16650391 C74.1858379,5.40478516 73.3987285,4.94775391 72.4465801,4.94775391 C70.694627,4.94775391 69.5901348,6.33154297 69.5901348,8.52783203 C69.5901348,10.7304688 70.6882793,12.1142578 72.4465801,12.1142578 Z M72.9353496,10.8066406 C71.856248,10.8066406 71.2024395,9.95605469 71.2024395,8.53417969 C71.2024395,7.11865234 71.8625957,6.26171875 72.9353496,6.26171875 C74.0144512,6.26171875 74.6809551,7.13134766 74.6809551,8.53417969 C74.6809551,9.94335938 74.0207988,10.8066406 72.9353496,10.8066406 Z" id="Bookmarked"></path>
                    </g>
                </g>
            </g>
        </g>
    </g>
</svg>